<svg width="1239" height="255" viewBox="0 0 1239 255" fill="none" xmlns="http://www.w3.org/2000/svg">
<path fill-rule="evenodd" clip-rule="evenodd" d="M989 111V143C989 167.301 969.301 187 945 187H898.5C876.685 187 859 169.315 859 147.5C859 125.685 876.685 108 898.5 108H952.999V134H898.5C891.045 134 885 140.044 885 147.5C885 154.956 891.045 161 898.5 161H943C954.045 161 963 152.046 963 141V113C963 101.954 954.045 93 943 93H862V67H945C969.301 67 989 86.6995 989 111ZM709 227V111C709 86.6995 728.699 67 753 67H795C819.301 67 839 86.6995 839 111V143C839 167.301 819.301 187 795 187H745.001V161H793C804.045 161 813 152.046 813 141V113C813 101.954 804.045 93 793 93H755C743.955 93 735 101.954 735 113V227H709ZM490 161V187H404C379.699 187 360 167.301 360 143V111C360 86.6995 379.699 67 404 67H490V93H406.001C394.955 93 386.001 101.954 386.001 113V117.006H480V142.008H386.001C386.001 152.497 394.504 161 404.992 161H490ZM510 187V111C510 86.6995 529.699 67 554 67H645C669.301 67 689 86.6995 689 111V187H663V113C663 101.954 654.045 93 643 93H613V187H586V93H556C544.955 93 536 101.954 536 113V187H510ZM1009 38V143C1009 167.301 1028.7 187 1053 187H1089V161H1055C1043.95 161 1035 152.046 1035 141V93H1089V67H1035V38H1009ZM1109 27V187H1135.01V93H1192.99C1204.03 93 1212.99 101.954 1212.99 113V187H1239V111C1239 86.6995 1219.3 67 1195 67H1135.01V27H1109Z" fill="white"/>
<path fill-rule="evenodd" clip-rule="evenodd" d="M160.909 0L212.681 27.426L230.857 92.6276L160.909 107.634L160.909 0ZM197.675 45.5376L187.325 50.1948L199.744 57.4395L197.675 45.5376Z" fill="#CFD9E6"/>
<path d="M160.909 107.634L245.282 144.375L230.857 92.6276L160.909 107.634Z" fill="white"/>
<path fill-rule="evenodd" clip-rule="evenodd" d="M212.681 27.426L160.934 0V107.634L196.122 55.3696L187.325 50.1948L197.699 45.5376L198.71 51.2298L212.681 27.426Z" fill="#E1E8F0"/>
<path d="M191.465 185.773L160.934 107.634V173.871L191.465 185.773Z" fill="#E1E8F0"/>
<path fill-rule="evenodd" clip-rule="evenodd" d="M230.793 92.6275L278.295 47.6074H298.951L245.282 144.375L230.793 92.6275Z" fill="#E1E8F0"/>
<path fill-rule="evenodd" clip-rule="evenodd" d="M298.951 47.6074L320 73.9609L308.84 86.4017L286.983 68.745L298.951 47.6074Z" fill="white"/>
<path fill-rule="evenodd" clip-rule="evenodd" d="M87.4247 164.557L93.7631 229.758L110.739 184.429L87.4247 164.557Z" fill="#CFD9E6"/>
<path d="M87.4247 164.557L70.3762 202.186L93.7631 229.758L87.4247 164.557Z" fill="#E1E8F0"/>
<path d="M160.934 0L47.09 254.596L0 89.5228L160.934 0Z" fill="white"/>
<path fill-rule="evenodd" clip-rule="evenodd" d="M43.7264 127.039L0 89.5225L47.09 254.596L43.7264 127.039Z" fill="#E1E8F0"/>
<path d="M47.09 254.596L87.4529 164.556L43.7264 127.039L47.09 254.596Z" fill="#CFD9E6"/>
<path d="M160.934 227.688V107.634L114.822 102.445L160.934 227.688Z" fill="#CFD9E6"/>
<path d="M160.934 0H77.1034L91.354 38.7053L160.934 0Z" fill="#CFD9E6"/>
<path d="M160.934 107.634V0L114.822 102.445L160.934 107.634Z" fill="#F0F3F6"/>
<path fill-rule="evenodd" clip-rule="evenodd" d="M114.822 102.445L160.934 0L91.354 38.7053L114.822 102.445Z" fill="#F0F3F6"/>
<path d="M91.354 38.7053L67.4108 66.5599L43.4677 94.4146L114.822 102.445L91.354 38.7053Z" fill="#E1E8F0"/>
<path d="M91.354 38.7053L0 89.5228L43.4677 94.4146L67.4108 66.5599L91.354 38.7053Z" fill="#CFD9E6"/>
<path d="M160.934 227.688L114.822 102.445C114.822 102.445 98.1411 140.3 87.4529 164.556C116.149 189.211 160.934 227.688 160.934 227.688Z" fill="#E1E8F0"/>
</svg>
